<svg width="63" height="65" viewBox="0 0 63 65" fill="none" xmlns="http://www.w3.org/2000/svg">
<path fill-rule="evenodd" clip-rule="evenodd" d="M31.5 54.1667C26.7254 54.1745 22.0919 52.4963 18.3698 49.4109L18.375 49.4136V47.5638C18.375 42.705 22.2915 38.7617 27.1241 38.7617H35.8759C40.7059 38.7617 44.625 42.705 44.625 47.5638V49.4136C40.9039 52.4968 36.2725 54.1741 31.5 54.1667ZM5.25 32.5C5.25 17.5419 17.0021 5.41669 31.5 5.41669C45.9979 5.41669 57.75 17.5419 57.75 32.5C57.75 47.3959 46.095 59.4831 31.6785 59.5834H31.3163C16.8998 59.4804 5.25 47.3959 5.25 32.5ZM31.5 18.9584C26.67 18.9584 22.7509 22.899 22.7509 27.7604C22.7509 32.6219 26.6674 36.5625 31.5 36.5625C36.33 36.5625 40.2491 32.6219 40.2491 27.7604C40.2491 22.899 36.3326 18.9584 31.5 18.9584Z" fill="black"/>
</svg>
