<svg width="45" height="45" viewBox="0 0 45 45" fill="none" xmlns="http://www.w3.org/2000/svg">
<path d="M33.1667 11.6667V33M22.5 19.6667V33M11.8334 27.6667V33M6.50002 43.6667H38.5C39.9145 43.6667 41.2711 43.1048 42.2713 42.1046C43.2715 41.1044 43.8334 39.7478 43.8334 38.3333V6.33333C43.8334 4.91885 43.2715 3.56229 42.2713 2.5621C41.2711 1.5619 39.9145 1 38.5 1H6.50002C5.08553 1 3.72898 1.5619 2.72878 2.5621C1.72859 3.56229 1.16669 4.91885 1.16669 6.33333V38.3333C1.16669 39.7478 1.72859 41.1044 2.72878 42.1046C3.72898 43.1048 5.08553 43.6667 6.50002 43.6667Z" stroke="black" stroke-width="2" stroke-linecap="round" stroke-linejoin="round"/>
</svg>
