<svg width="65" height="64" viewBox="0 0 65 64" fill="none" xmlns="http://www.w3.org/2000/svg">
<path d="M34.7624 7.33761C34.1623 6.7377 33.3485 6.4007 32.5 6.4007C31.6515 6.4007 30.8377 6.7377 30.2376 7.33761L7.83761 29.7376C7.2547 30.3411 6.93216 31.1495 6.93945 31.9885C6.94674 32.8275 7.28328 33.6301 7.87659 34.2234C8.4699 34.8167 9.27249 35.1533 10.1115 35.1606C10.9506 35.1679 11.7589 34.8453 12.3624 34.2624L13.3 33.3248V54.4C13.3 55.2487 13.6372 56.0626 14.2373 56.6628C14.8374 57.2629 15.6513 57.6 16.5 57.6H22.9C23.7487 57.6 24.5626 57.2629 25.1628 56.6628C25.7629 56.0626 26.1 55.2487 26.1 54.4V48C26.1 47.1513 26.4372 46.3374 27.0373 45.7373C27.6374 45.1372 28.4513 44.8 29.3 44.8H35.7C36.5487 44.8 37.3626 45.1372 37.9628 45.7373C38.5629 46.3374 38.9 47.1513 38.9 48V54.4C38.9 55.2487 39.2372 56.0626 39.8373 56.6628C40.4374 57.2629 41.2513 57.6 42.1 57.6H48.5C49.3487 57.6 50.1626 57.2629 50.7628 56.6628C51.3629 56.0626 51.7 55.2487 51.7 54.4V33.3248L52.6376 34.2624C53.2411 34.8453 54.0495 35.1679 54.8885 35.1606C55.7275 35.1533 56.5301 34.8167 57.1234 34.2234C57.7167 33.6301 58.0533 32.8275 58.0606 31.9885C58.0679 31.1495 57.7453 30.3411 57.1624 29.7376L34.7624 7.33761V7.33761Z" fill="black"/>
</svg>
