<svg width="65" height="65" viewBox="0 0 65 65" fill="none" xmlns="http://www.w3.org/2000/svg">
<path d="M29.8333 43.3334L19.1667 32.6667M19.1667 32.6667L29.8333 22M19.1667 32.6667H56.5M43.1667 43.3334V46C43.1667 48.1218 42.3238 50.1566 40.8235 51.6569C39.3232 53.1572 37.2884 54 35.1667 54H16.5C14.3783 54 12.3434 53.1572 10.8431 51.6569C9.34286 50.1566 8.5 48.1218 8.5 46V19.3334C8.5 17.2116 9.34286 15.1768 10.8431 13.6765C12.3434 12.1762 14.3783 11.3334 16.5 11.3334H35.1667C37.2884 11.3334 39.3232 12.1762 40.8235 13.6765C42.3238 15.1768 43.1667 17.2116 43.1667 19.3334V22" stroke="#F96666" stroke-width="2" stroke-linecap="round" stroke-linejoin="round"/>
</svg>
