<svg width="65" height="65" viewBox="0 0 65 65" fill="none" xmlns="http://www.w3.org/2000/svg">
<path d="M28.0333 12.1786C29.1693 7.49596 35.8307 7.49596 36.9667 12.1786C37.1371 12.8821 37.4713 13.5354 37.9419 14.0853C38.4125 14.6352 39.0064 15.0662 39.6751 15.3433C40.3438 15.6203 41.0684 15.7356 41.7901 15.6796C42.5117 15.6237 43.21 15.3981 43.828 15.0213C47.9427 12.5146 52.6547 17.224 50.148 21.3413C49.7717 21.959 49.5465 22.6569 49.4907 23.378C49.4349 24.0992 49.55 24.8233 49.8267 25.4916C50.1035 26.1599 50.534 26.7535 51.0833 27.2241C51.6326 27.6947 52.2852 28.029 52.988 28.2C57.6707 29.336 57.6707 35.9973 52.988 37.1333C52.2845 37.3037 51.6313 37.6379 51.0813 38.1085C50.5314 38.5792 50.1004 39.173 49.8233 39.8417C49.5463 40.5104 49.4311 41.2351 49.487 41.9567C49.543 42.6784 49.7685 43.3766 50.1453 43.9946C52.652 48.1093 47.9427 52.8213 43.8253 50.3146C43.2076 49.9384 42.5098 49.7132 41.7886 49.6573C41.0674 49.6015 40.3433 49.7166 39.675 49.9934C39.0067 50.2701 38.4131 50.7006 37.9425 51.2499C37.4719 51.7992 37.1376 52.4518 36.9667 53.1546C35.8307 57.8373 29.1693 57.8373 28.0333 53.1546C27.8629 52.4512 27.5287 51.7979 27.0581 51.248C26.5875 50.698 25.9936 50.267 25.3249 49.99C24.6562 49.7129 23.9316 49.5977 23.2099 49.6536C22.4883 49.7096 21.79 49.9352 21.172 50.312C17.0573 52.8186 12.3453 48.1093 14.852 43.992C15.2283 43.3742 15.4535 42.6764 15.5093 41.9552C15.5651 41.2341 15.45 40.5099 15.1733 39.8416C14.8965 39.1733 14.466 38.5798 13.9167 38.1092C13.3674 37.6386 12.7148 37.3042 12.012 37.1333C7.32933 35.9973 7.32933 29.336 12.012 28.2C12.7155 28.0295 13.3687 27.6954 13.9187 27.2247C14.4686 26.7541 14.8996 26.1603 15.1767 25.4916C15.4537 24.8229 15.5689 24.0982 15.513 23.3765C15.457 22.6549 15.2315 21.9566 14.8547 21.3386C12.348 17.224 17.0573 12.512 21.1747 15.0186C23.8307 16.64 27.2973 15.2053 28.0333 12.1786Z" stroke="black" stroke-width="2" stroke-linecap="round" stroke-linejoin="round"/>
<path d="M40.5 32.6666C40.5 34.7884 39.6571 36.8232 38.1569 38.3235C36.6566 39.8238 34.6217 40.6666 32.5 40.6666C30.3783 40.6666 28.3434 39.8238 26.8431 38.3235C25.3429 36.8232 24.5 34.7884 24.5 32.6666C24.5 30.5449 25.3429 28.5101 26.8431 27.0098C28.3434 25.5095 30.3783 24.6666 32.5 24.6666C34.6217 24.6666 36.6566 25.5095 38.1569 27.0098C39.6571 28.5101 40.5 30.5449 40.5 32.6666V32.6666Z" stroke="black" stroke-width="2" stroke-linecap="round" stroke-linejoin="round"/>
</svg>
